<svg width="1516" height="512" viewBox="0 0 1516 512" fill="none" xmlns="http://www.w3.org/2000/svg">
<path d="M511.24 359.946H359.965V511.22H511.24V359.946Z" fill="#333333"/>
<path d="M346.925 359.946H195.65V511.22H346.925V359.946Z" fill="#333333"/>
<path d="M182.61 359.946H31.3355V511.22H182.61V359.946Z" fill="#333333"/>
<path d="M511.24 195.631H359.965V346.905H511.24V195.631Z" fill="#333333"/>
<path d="M346.925 195.631H195.65V346.905H346.925V195.631Z" fill="#333333"/>
<path d="M182.61 195.631H31.3355V346.905H182.61V195.631Z" fill="#333333"/>
<path d="M511.24 31.3159H359.965V182.59H511.24V31.3159Z" fill="#333333"/>
<path d="M346.925 31.3159H195.65V182.59H346.925V31.3159Z" fill="#333333"/>
<path d="M151.624 0.779968H0.349697V152.054H151.624V0.779968Z" fill="#333333"/>
<path d="M614.754 323.122C612.345 323.122 610.379 322.358 608.852 320.827C607.321 319.301 606.559 317.334 606.559 314.926V101.84C606.559 99.4376 607.321 97.4702 608.852 95.9386C610.379 94.4124 612.345 93.6433 614.754 93.6433H701.627C728.944 93.6433 750.473 99.9278 766.209 112.494C781.944 125.064 789.812 143.145 789.812 166.748C789.812 182.704 785.985 196.037 778.339 206.743C770.686 217.454 760.416 225.429 747.522 230.674L793.746 312.63C794.403 313.942 794.73 315.145 794.73 316.236C794.73 317.988 794.074 319.57 792.762 320.99C791.452 322.414 789.812 323.121 787.845 323.121H751.456C747.522 323.121 744.573 322.086 742.605 320.006C740.639 317.932 739.215 316.021 738.343 314.27L698.349 239.197H658.681V314.925C658.681 317.333 657.913 319.3 656.388 320.826C654.857 322.358 652.888 323.121 650.486 323.121L614.754 323.122ZM658.681 197.564H700.644C712.66 197.564 721.569 194.834 727.361 189.369C733.149 183.909 736.049 176.256 736.049 166.421C736.049 156.587 733.207 148.831 727.526 143.146C721.839 137.465 712.882 134.623 700.644 134.623H658.681V197.564Z" fill="#333333"/>
<path d="M895.696 326.4C883.019 326.4 871.817 323.501 862.094 317.712C852.367 311.924 844.827 303.508 839.474 292.469C834.117 281.436 831.442 268.046 831.442 252.31V160.847C831.442 158.445 832.206 156.478 833.736 154.946C835.263 153.42 837.122 152.652 839.31 152.652H874.058C876.46 152.652 878.429 153.42 879.959 154.946C881.485 156.478 882.253 158.445 882.253 160.847V250.344C882.253 274.823 892.96 287.061 914.381 287.061C924.651 287.061 932.789 283.838 938.803 277.39C944.812 270.947 947.819 261.931 947.819 250.345V160.848C947.819 158.446 948.581 156.479 950.112 154.947C951.639 153.421 953.605 152.653 956.014 152.653H990.763C992.945 152.653 994.804 153.421 996.335 154.947C997.862 156.479 998.63 158.446 998.63 160.848V314.926C998.63 317.334 997.862 319.301 996.335 320.828C994.804 322.359 992.945 323.122 990.763 323.122H958.635C956.229 323.122 954.26 322.358 952.735 320.828C951.204 319.301 950.44 317.334 950.44 314.926V302.142C944.754 310.009 937.435 316.023 928.476 320.172C919.512 324.321 908.587 326.401 895.693 326.401L895.696 326.4Z" fill="#333333"/>
<path d="M1145.5 326.4C1133.04 326.4 1122.66 324.269 1114.36 320.007C1106.05 315.746 1099.27 310.337 1094.03 303.78V314.926C1094.03 317.334 1093.26 319.301 1091.74 320.827C1090.2 322.359 1088.24 323.122 1085.84 323.122H1054.69C1052.28 323.122 1050.32 322.358 1048.79 320.827C1047.26 319.301 1046.5 317.334 1046.5 314.926V98.5617C1046.5 96.1597 1047.26 94.1923 1048.79 92.6606C1050.32 91.1344 1052.28 90.3654 1054.69 90.3654H1088.46C1090.64 90.3654 1092.5 91.1334 1094.03 92.6606C1095.56 94.1923 1096.32 96.1597 1096.32 98.5617V170.028C1101.79 163.913 1108.56 158.938 1116.65 155.112C1124.73 151.29 1134.35 149.375 1145.5 149.375C1156.86 149.375 1166.75 151.291 1175.17 155.112C1183.58 158.937 1190.74 164.291 1196.64 171.175C1202.54 178.06 1207.07 186.204 1210.24 195.599C1213.41 204.998 1215.1 215.381 1215.32 226.743C1215.54 230.676 1215.65 234.339 1215.65 237.724C1215.65 241.11 1215.54 244.885 1215.32 249.034C1214.88 260.621 1213.08 271.162 1209.91 280.669C1206.74 290.176 1202.26 298.371 1196.47 305.256C1190.68 312.141 1183.58 317.386 1175.16 320.992C1166.75 324.598 1156.86 326.401 1145.5 326.401L1145.5 326.4ZM1130.75 287.061C1139.05 287.061 1145.61 285.258 1150.42 281.652C1155.22 278.046 1158.66 273.292 1160.74 267.391C1162.82 261.49 1164.07 255.046 1164.51 248.049C1164.95 241.278 1164.95 234.501 1164.51 227.724C1164.07 220.733 1162.82 214.284 1160.74 208.382C1158.66 202.481 1155.22 197.728 1150.42 194.122C1145.61 190.516 1139.05 188.713 1130.75 188.713C1122.88 188.713 1116.49 190.465 1111.57 193.958C1106.65 197.456 1102.93 201.882 1100.42 207.235C1097.91 212.593 1096.54 218.331 1096.33 224.446C1096.11 228.38 1096 232.427 1096 236.576C1096 240.726 1096.11 244.885 1096.33 249.034C1096.76 255.591 1098.07 261.712 1100.26 267.392C1102.44 273.077 1106.05 277.775 1111.08 281.488C1116.1 285.208 1122.66 287.062 1130.75 287.062L1130.75 287.061Z" fill="#333333"/>
<path d="M1264.83 323.122C1262.64 323.122 1260.78 322.358 1259.25 320.828C1257.72 319.301 1256.96 317.334 1256.96 314.926V160.848C1256.96 158.446 1257.72 156.479 1259.25 154.947C1260.78 153.421 1262.64 152.653 1264.83 152.653H1297.61C1300.01 152.653 1301.98 153.421 1303.51 154.947C1305.04 156.479 1305.8 158.446 1305.8 160.848V314.926C1305.8 317.334 1305.04 319.301 1303.51 320.828C1301.98 322.359 1300.01 323.122 1297.61 323.122H1264.83Z" fill="#333333"/>
<path d="M1346.12 323.122C1344.16 323.122 1342.46 322.415 1341.04 320.991C1339.62 319.573 1338.91 317.876 1338.91 315.909C1338.91 315.253 1339.07 314.434 1339.4 313.45C1339.73 312.467 1340.22 311.54 1340.88 310.664L1396.28 235.591L1345.47 165.109C1344.81 164.238 1344.32 163.362 1343.99 162.487C1343.66 161.616 1343.5 160.74 1343.5 159.865C1343.5 157.897 1344.2 156.208 1345.63 154.784C1347.05 153.365 1348.74 152.653 1350.71 152.653H1384.8C1387.43 152.653 1389.45 153.309 1390.87 154.62C1392.29 155.932 1393.33 157.136 1393.98 158.226L1427.75 204.122L1461.51 158.554C1462.39 157.462 1463.48 156.208 1464.79 154.784C1466.1 153.365 1468.18 152.653 1471.02 152.653H1503.48C1505.44 152.653 1507.13 153.365 1508.56 154.784C1509.98 156.208 1510.69 157.898 1510.69 159.865C1510.69 160.74 1510.58 161.616 1510.36 162.487C1510.14 163.362 1509.59 164.238 1508.72 165.109L1456.92 235.919L1512.98 310.664C1513.64 311.54 1514.13 312.415 1514.46 313.286C1514.79 314.162 1514.95 315.038 1514.95 315.908C1514.95 317.875 1514.24 319.57 1512.82 320.99C1511.39 322.414 1509.71 323.121 1507.74 323.121H1472C1469.6 323.121 1467.74 322.521 1466.43 321.318C1465.12 320.119 1464.02 318.971 1463.15 317.875L1426.77 269.357L1389.72 317.875C1389.06 318.751 1388.08 319.843 1386.77 321.153C1385.46 322.465 1383.49 323.121 1380.87 323.121H1346.12L1346.12 323.122Z" fill="#333333"/>
<path d="M643.371 448.893C635.996 448.893 629.808 447.749 624.807 445.46C619.804 443.171 615.97 440.228 613.301 436.624C610.631 433.023 609.211 429.23 609.041 425.244C609.041 424.566 609.315 423.952 609.868 423.401C610.418 422.851 611.075 422.575 611.839 422.575H618.323C619.34 422.575 620.103 422.829 620.611 423.338C621.119 423.846 621.458 424.44 621.628 425.118C622.136 427.152 623.196 429.167 624.805 431.156C626.415 433.149 628.727 434.801 631.736 436.115C634.743 437.43 638.621 438.085 643.368 438.085C650.658 438.085 656.02 436.793 659.454 434.207C662.886 431.623 664.603 428.169 664.603 423.846C664.603 420.879 663.69 418.486 661.868 416.662C660.045 414.841 657.269 413.21 653.539 411.767C649.809 410.326 644.977 408.76 639.046 407.062C632.858 405.282 627.731 403.333 623.661 401.214C619.593 399.096 616.561 396.468 614.57 393.331C612.578 390.197 611.583 386.211 611.583 381.378C611.583 376.801 612.812 372.712 615.27 369.109C617.728 365.507 621.287 362.646 625.951 360.527C630.612 358.409 636.206 357.349 642.735 357.349C647.989 357.349 652.588 358.047 656.53 359.446C660.472 360.845 663.755 362.711 666.383 365.041C669.009 367.373 671.002 369.872 672.359 372.542C673.714 375.213 674.436 377.819 674.521 380.362C674.521 380.956 674.309 381.528 673.887 382.078C673.46 382.631 672.783 382.905 671.851 382.905H665.112C664.518 382.905 663.904 382.736 663.267 382.396C662.632 382.058 662.143 381.422 661.805 380.489C661.297 377.014 659.346 374.09 655.957 371.716C652.565 369.344 648.158 368.156 642.735 368.156C637.223 368.156 632.755 369.217 629.321 371.335C625.888 373.454 624.172 376.76 624.172 381.252C624.172 384.134 624.977 386.529 626.589 388.436C628.198 390.343 630.741 392.018 634.218 393.458C637.692 394.9 642.228 396.426 647.822 398.035C654.602 399.901 660.155 401.871 664.478 403.947C668.801 406.026 672 408.611 674.077 411.704C676.153 414.799 677.193 418.76 677.193 423.592C677.193 428.932 675.795 433.489 672.997 437.26C670.201 441.033 666.278 443.915 661.235 445.906C656.19 447.896 650.238 448.893 643.371 448.893Z" fill="#333333"/>
<path d="M744.961 447.621C744.113 447.621 743.413 447.347 742.863 446.795C742.311 446.245 742.038 445.546 742.038 444.697V414.691L711.395 362.816C711.31 362.561 711.224 362.307 711.14 362.052C711.054 361.798 711.012 361.502 711.012 361.162C711.012 360.484 711.268 359.89 711.777 359.382C712.285 358.874 712.878 358.619 713.555 358.619H720.168C720.931 358.619 721.608 358.809 722.202 359.192C722.794 359.573 723.219 360.103 723.474 360.781L748.268 401.976L773.06 360.781C773.484 360.102 773.971 359.573 774.523 359.192C775.073 358.809 775.73 358.619 776.494 358.619H782.978C783.741 358.619 784.376 358.874 784.884 359.382C785.393 359.89 785.648 360.486 785.648 361.162C785.648 361.502 785.604 361.798 785.521 362.052C785.435 362.307 785.309 362.561 785.14 362.816L754.624 414.691V444.697C754.624 445.545 754.349 446.245 753.799 446.795C753.249 447.345 752.506 447.621 751.573 447.621H744.961Z" fill="#333333"/>
<path d="M853.796 448.893C846.422 448.893 840.234 447.749 835.232 445.46C830.23 443.171 826.396 440.228 823.726 436.624C821.055 433.023 819.635 429.23 819.466 425.244C819.466 424.566 819.741 423.952 820.293 423.401C820.843 422.851 821.499 422.575 822.264 422.575H828.747C829.764 422.575 830.528 422.829 831.037 423.338C831.545 423.846 831.882 424.44 832.054 425.118C832.562 427.152 833.621 429.167 835.231 431.156C836.841 433.149 839.151 434.801 842.16 436.115C845.167 437.43 849.046 438.085 853.794 438.085C861.083 438.085 866.446 436.793 869.878 434.207C873.31 431.623 875.027 428.169 875.027 423.846C875.027 420.879 874.115 418.486 872.293 416.662C870.47 414.841 867.694 413.21 863.965 411.767C860.234 410.326 855.401 408.76 849.471 407.062C843.283 405.282 838.155 403.333 834.087 401.214C830.019 399.096 826.987 396.468 824.996 393.331C823.003 390.197 822.009 386.211 822.009 381.378C822.009 376.801 823.236 372.712 825.696 369.109C828.154 365.507 831.714 362.646 836.376 360.527C841.037 358.409 846.633 357.349 853.162 357.349C858.416 357.349 863.015 358.047 866.956 359.446C870.897 360.845 874.182 362.711 876.809 365.041C879.436 367.373 881.429 369.872 882.786 372.542C884.14 375.213 884.862 377.819 884.948 380.362C884.948 380.956 884.735 381.528 884.312 382.078C883.887 382.631 883.209 382.905 882.277 382.905H875.538C874.944 382.905 874.329 382.736 873.694 382.396C873.059 382.058 872.57 381.422 872.232 380.489C871.723 377.014 869.771 374.09 866.384 371.716C862.992 369.344 858.583 368.156 853.162 368.156C847.65 368.156 843.18 369.217 839.748 371.335C836.314 373.454 834.599 376.76 834.599 381.252C834.599 384.134 835.402 386.529 837.014 388.436C838.624 390.343 841.167 392.018 844.643 393.458C848.118 394.9 852.654 396.426 858.249 398.035C865.029 399.901 870.581 401.871 874.903 403.947C879.227 406.026 882.426 408.611 884.504 411.704C886.58 414.799 887.619 418.76 887.619 423.592C887.619 428.932 886.221 433.489 883.424 437.26C880.626 441.033 876.705 443.915 871.661 445.906C866.617 447.896 860.662 448.893 853.796 448.893Z" fill="#333333"/>
<path d="M953.224 447.621C952.375 447.621 951.676 447.347 951.128 446.795C950.575 446.245 950.3 445.546 950.3 444.697V369.935H925.889C925.04 369.935 924.342 369.661 923.792 369.109C923.239 368.559 922.965 367.86 922.965 367.011V361.67C922.965 360.739 923.239 359.998 923.792 359.445C924.342 358.895 925.04 358.619 925.889 358.619H987.172C988.104 358.619 988.845 358.895 989.399 359.445C989.949 359.998 990.225 360.738 990.225 361.67V367.011C990.225 367.859 989.949 368.559 989.399 369.109C988.848 369.659 988.106 369.935 987.172 369.935H962.889V444.697C962.889 445.545 962.612 446.245 962.061 446.795C961.51 447.347 960.77 447.621 959.837 447.621H953.224Z" fill="#333333"/>
<path d="M1034.98 447.621C1034.05 447.621 1033.33 447.347 1032.82 446.795C1032.31 446.245 1032.05 445.546 1032.05 444.697V361.67C1032.05 360.739 1032.31 359.998 1032.82 359.445C1033.33 358.895 1034.05 358.619 1034.98 358.619H1087.49C1088.42 358.619 1089.14 358.895 1089.65 359.445C1090.16 359.998 1090.42 360.738 1090.42 361.67V366.502C1090.42 367.436 1090.16 368.155 1089.65 368.663C1089.14 369.172 1088.42 369.427 1087.49 369.427H1044.26V397.271H1084.69C1085.62 397.271 1086.35 397.547 1086.85 398.097C1087.36 398.65 1087.62 399.39 1087.62 400.322V405.026C1087.62 405.875 1087.36 406.574 1086.85 407.124C1086.35 407.676 1085.62 407.95 1084.69 407.95H1044.26V436.811H1088.51C1089.44 436.811 1090.16 437.066 1090.67 437.574C1091.18 438.083 1091.43 438.804 1091.43 439.736V444.695C1091.43 445.543 1091.18 446.243 1090.67 446.793C1090.16 447.345 1089.44 447.619 1088.51 447.619H1034.98V447.621Z" fill="#333333"/>
<path d="M1139.62 447.621C1138.77 447.621 1138.07 447.347 1137.52 446.795C1136.97 446.245 1136.7 445.546 1136.7 444.697V361.67C1136.7 360.739 1136.97 359.998 1137.52 359.445C1138.07 358.895 1138.77 358.619 1139.62 358.619H1145.98C1146.99 358.619 1147.76 358.874 1148.26 359.382C1148.77 359.89 1149.11 360.315 1149.28 360.654L1176.11 412.021L1203.19 360.654C1203.36 360.315 1203.68 359.89 1204.14 359.382C1204.61 358.874 1205.35 358.619 1206.37 358.619H1212.6C1213.53 358.619 1214.27 358.895 1214.83 359.445C1215.38 359.998 1215.65 360.738 1215.65 361.67V444.697C1215.65 445.545 1215.38 446.245 1214.83 446.795C1214.27 447.347 1213.53 447.621 1212.6 447.621H1206.37C1205.52 447.621 1204.82 447.347 1204.27 446.795C1203.72 446.245 1203.45 445.546 1203.45 444.697V382.142L1182.21 423.591C1181.87 424.439 1181.36 425.097 1180.69 425.562C1180.01 426.028 1179.16 426.261 1178.14 426.261H1174.2C1173.1 426.261 1172.25 426.028 1171.66 425.562C1171.07 425.097 1170.56 424.439 1170.13 423.591L1148.77 382.142V444.697C1148.77 445.545 1148.5 446.245 1147.95 446.795C1147.4 447.345 1146.7 447.621 1145.85 447.621H1139.62Z" fill="#333333"/>
<path d="M1312.17 103.312C1302.82 107.031 1284.7 125.148 1280.98 134.498C1277.26 125.148 1259.14 107.031 1249.79 103.312C1259.14 99.5928 1277.26 81.4758 1280.98 72.1258C1284.7 81.4758 1302.82 99.5928 1312.17 103.312Z" fill="#333333"/>
</svg>
